<svg width="1448" height="259" viewBox="0 0 1448 259" fill="none" xmlns="http://www.w3.org/2000/svg">
<path d="M22.2148 247V21.47H97.5082V92.9112L156.342 21.47H241.441L163.346 114.624L247.745 247H167.899L117.119 162.251L97.5082 185.014V247H22.2148ZM359.213 250.502C338.201 250.502 319.407 247 302.83 239.996C286.254 232.992 273.18 222.719 263.608 209.178C254.269 195.637 249.6 178.944 249.6 159.099V21.47H324.893V150.344C324.893 174.625 336.333 186.765 359.213 186.765C382.093 186.765 393.533 174.625 393.533 150.344V21.47H468.826V159.099C468.826 178.944 464.04 195.637 454.468 209.178C445.129 222.719 432.172 232.992 415.595 239.996C399.253 247 380.458 250.502 359.213 250.502ZM495.192 247V21.47H599.202C622.783 21.47 642.978 25.3223 659.787 33.0267C676.597 40.4977 689.554 52.638 698.66 69.4477C707.765 86.0239 712.318 108.087 712.318 135.636C712.318 174.625 702.395 202.991 682.55 220.735C662.706 238.245 634.923 247 599.202 247H495.192ZM570.486 189.567H590.097C599.669 189.567 607.841 188.166 614.611 185.364C621.382 182.563 626.518 177.31 630.02 169.605C633.756 161.901 635.623 150.578 635.623 135.636C635.623 120.694 633.989 109.371 630.72 101.666C627.452 93.9618 622.432 88.7088 615.662 85.9072C608.891 82.8721 600.37 81.3546 590.097 81.3546H570.486V189.567ZM844.234 250.502C819.02 250.502 797.657 246.65 780.147 238.945C762.637 231.241 749.213 218.867 739.874 201.824C730.769 184.781 726.216 162.368 726.216 134.585C726.216 106.336 730.769 83.6892 739.874 66.6461C749.213 49.6029 762.637 37.2291 780.147 29.5247C797.657 21.8202 819.02 17.968 844.234 17.968C869.449 17.968 890.811 21.8202 908.321 29.5247C925.831 37.2291 939.139 49.6029 948.244 66.6461C957.583 83.6892 962.252 106.336 962.252 134.585C962.252 162.368 957.583 184.781 948.244 201.824C939.139 218.867 925.831 231.241 908.321 238.945C890.811 246.65 869.449 250.502 844.234 250.502ZM844.234 186.765C858.709 186.765 869.098 182.68 875.402 174.508C881.939 166.337 885.208 153.029 885.208 134.585C885.208 115.207 881.939 101.666 875.402 93.9618C869.098 86.0239 858.709 82.055 844.234 82.055C829.526 82.055 818.903 86.0239 812.366 93.9618C806.062 101.666 802.91 115.207 802.91 134.585C802.91 153.029 806.062 166.337 812.366 174.508C818.903 182.68 829.526 186.765 844.234 186.765ZM983.218 247V21.47H1105.09C1124 21.47 1139.52 25.0888 1151.66 32.3263C1164.04 39.3303 1173.14 49.0193 1178.98 61.393C1185.05 73.7668 1188.09 87.8916 1188.09 103.767C1188.09 118.943 1184.23 132.367 1176.53 144.041C1168.82 155.481 1159.14 164.586 1147.46 171.356C1151.9 174.858 1155.63 179.995 1158.67 186.765L1184.93 247H1106.49L1083.38 194.82C1081.74 191.318 1079.99 188.867 1078.12 187.466C1076.25 186.065 1073.34 185.364 1069.37 185.364H1058.51V247H983.218ZM1058.51 127.231H1086.18C1102.99 127.231 1111.39 119.41 1111.39 103.767C1111.39 87.8916 1103.57 79.9537 1087.93 79.9537H1058.51V127.231ZM1314.82 250.502C1289.6 250.502 1268.24 246.65 1250.73 238.945C1233.22 231.241 1219.8 218.867 1210.46 201.824C1201.35 184.781 1196.8 162.368 1196.8 134.585C1196.8 106.336 1201.35 83.6892 1210.46 66.6461C1219.8 49.6029 1233.22 37.2291 1250.73 29.5247C1268.24 21.8202 1289.6 17.968 1314.82 17.968C1340.03 17.968 1361.39 21.8202 1378.9 29.5247C1396.41 37.2291 1409.72 49.6029 1418.83 66.6461C1428.17 83.6892 1432.84 106.336 1432.84 134.585C1432.84 162.368 1428.17 184.781 1418.83 201.824C1409.72 218.867 1396.41 231.241 1378.9 238.945C1361.39 246.65 1340.03 250.502 1314.82 250.502ZM1314.82 186.765C1329.29 186.765 1339.68 182.68 1345.99 174.508C1352.52 166.337 1355.79 153.029 1355.79 134.585C1355.79 115.207 1352.52 101.666 1345.99 93.9618C1339.68 86.0239 1329.29 82.055 1314.82 82.055C1300.11 82.055 1289.49 86.0239 1282.95 93.9618C1276.65 101.666 1273.49 115.207 1273.49 134.585C1273.49 153.029 1276.65 166.337 1282.95 174.508C1289.49 182.68 1300.11 186.765 1314.82 186.765Z" fill="white"/>
</svg>
