<svg width="462" height="96" viewBox="0 0 462 96" fill="none" xmlns="http://www.w3.org/2000/svg">
<path d="M0.606326 94V1.72871H16.4062V39.0164H27.4029L44.7196 1.72871H61.9099L41.3068 45.9684L62.921 94H45.3516L27.1501 53.4259H16.4062V94H0.606326ZM109.766 95.264C100.749 95.264 93.6709 92.8203 88.5307 87.9328C83.4747 82.9612 80.9467 76.2199 80.9467 67.709V1.72871H96.873V67.5826C96.873 71.9644 97.9685 75.3772 100.159 77.8209C102.35 80.2646 105.552 81.4865 109.766 81.4865C113.895 81.4865 117.055 80.2646 119.246 77.8209C121.521 75.3772 122.658 71.9644 122.658 67.5826V1.72871H138.585V67.709C138.585 76.2199 136.057 82.9612 131.001 87.9328C125.945 92.8203 118.866 95.264 109.766 95.264ZM162.172 94V1.72871H189.601C195.836 1.72871 201.229 2.90844 205.78 5.26789C210.414 7.62734 213.996 10.9558 216.524 15.2534C219.051 19.551 220.315 24.6491 220.315 30.5477V65.0546C220.315 70.869 219.051 75.9671 216.524 80.3489C213.996 84.6465 210.414 88.0171 205.78 90.4608C201.229 92.8203 195.836 94 189.601 94H162.172ZM177.972 79.4641H189.601C194.151 79.4641 197.774 78.2001 200.471 75.6721C203.167 73.0599 204.516 69.5207 204.516 65.0546V30.5477C204.516 26.1659 203.167 22.711 200.471 20.183C197.774 17.5707 194.151 16.2646 189.601 16.2646H177.972V79.4641ZM271.458 95.264C265.559 95.264 260.419 94.1685 256.037 91.9776C251.739 89.7024 248.411 86.5425 246.051 82.4977C243.776 78.3687 242.639 73.5234 242.639 67.9618V27.7669C242.639 22.2054 243.776 17.4022 246.051 13.3574C248.411 9.22839 251.739 6.06841 256.037 3.87749C260.419 1.60232 265.559 0.464726 271.458 0.464726C277.441 0.464726 282.581 1.60232 286.878 3.87749C291.176 6.06841 294.462 9.22839 296.738 13.3574C299.097 17.4022 300.277 22.1632 300.277 27.6405V67.9618C300.277 73.5234 299.097 78.3687 296.738 82.4977C294.462 86.5425 291.176 89.7024 286.878 91.9776C282.581 94.1685 277.441 95.264 271.458 95.264ZM271.458 81.3601C275.755 81.3601 279 80.2225 281.19 77.9473C283.381 75.5879 284.477 72.2594 284.477 67.9618V27.7669C284.477 23.3851 283.381 20.0566 281.19 17.7814C279 15.5062 275.755 14.3686 271.458 14.3686C267.16 14.3686 263.916 15.5062 261.725 17.7814C259.534 20.0566 258.439 23.3851 258.439 27.7669V67.9618C258.439 72.2594 259.534 75.5879 261.725 77.9473C264 80.2225 267.244 81.3601 271.458 81.3601ZM323.99 94V1.72871H353.189C359.34 1.72871 364.649 2.86631 369.115 5.14149C373.665 7.41667 377.204 10.6188 379.732 14.7478C382.26 18.7926 383.524 23.5957 383.524 29.1573C383.524 35.2245 381.965 40.5753 378.848 45.21C375.814 49.8446 371.685 53.131 366.46 55.0691L384.788 94H367.092L351.04 57.3443H339.79V94H323.99ZM339.79 43.4404H353.189C357.655 43.4404 361.152 42.2185 363.68 39.7748C366.208 37.3311 367.472 33.9605 367.472 29.6629C367.472 25.2811 366.208 21.8683 363.68 19.4246C361.152 16.8966 357.655 15.6326 353.189 15.6326H339.79V43.4404ZM433.15 95.264C427.251 95.264 422.111 94.1685 417.729 91.9776C413.431 89.7024 410.103 86.5425 407.744 82.4977C405.468 78.3687 404.331 73.5234 404.331 67.9618V27.7669C404.331 22.2054 405.468 17.4022 407.744 13.3574C410.103 9.22839 413.431 6.06841 417.729 3.87749C422.111 1.60232 427.251 0.464726 433.15 0.464726C439.133 0.464726 444.273 1.60232 448.57 3.87749C452.868 6.06841 456.154 9.22839 458.43 13.3574C460.789 17.4022 461.969 22.1632 461.969 27.6405V67.9618C461.969 73.5234 460.789 78.3687 458.43 82.4977C456.154 86.5425 452.868 89.7024 448.57 91.9776C444.273 94.1685 439.133 95.264 433.15 95.264ZM433.15 81.3601C437.447 81.3601 440.692 80.2225 442.882 77.9473C445.073 75.5879 446.169 72.2594 446.169 67.9618V27.7669C446.169 23.3851 445.073 20.0566 442.882 17.7814C440.692 15.5062 437.447 14.3686 433.15 14.3686C428.852 14.3686 425.608 15.5062 423.417 17.7814C421.226 20.0566 420.131 23.3851 420.131 27.7669V67.9618C420.131 72.2594 421.226 75.5879 423.417 77.9473C425.692 80.2225 428.936 81.3601 433.15 81.3601Z" fill="url(#paint0_linear_102_6)"/>
<defs>
<linearGradient id="paint0_linear_102_6" x1="232" y1="-7" x2="232" y2="100" gradientUnits="userSpaceOnUse">
<stop stop-color="#FFCF33"/>
<stop offset="1" stop-color="#FFC400"/>
</linearGradient>
</defs>
</svg>
