<svg width="807" height="305" viewBox="0 0 807 305" fill="none" xmlns="http://www.w3.org/2000/svg">
<path d="M174.629 257V164.729H186.005V204.292H199.656L220.132 164.729H232.519L209.641 209.095L233.783 257H220.764L199.277 214.277H186.005V257H174.629ZM276.71 258.264C268.115 258.264 261.542 255.905 256.991 251.186C252.441 246.382 250.166 239.894 250.166 231.72V164.729H261.542V231.72C261.542 236.776 262.764 240.779 265.207 243.728C267.735 246.677 271.57 248.152 276.71 248.152C281.766 248.152 285.558 246.677 288.086 243.728C290.614 240.779 291.878 236.776 291.878 231.72V164.729H303.254V231.72C303.254 239.978 300.978 246.467 296.428 251.186C291.962 255.905 285.389 258.264 276.71 258.264ZM326.209 257V164.729H350.098C356.081 164.729 361.221 165.866 365.519 168.141C369.901 170.417 373.271 173.619 375.631 177.748C378.075 181.877 379.296 186.764 379.296 192.41V229.192C379.296 234.838 378.075 239.768 375.631 243.981C373.271 248.11 369.901 251.312 365.519 253.587C361.221 255.862 356.081 257 350.098 257H326.209ZM337.585 246.888H350.098C355.66 246.888 359.999 245.329 363.117 242.211C366.319 239.093 367.92 234.754 367.92 229.192V192.41C367.92 186.933 366.319 182.635 363.117 179.517C359.999 176.4 355.66 174.841 350.098 174.841H337.585V246.888ZM428.29 258.264C422.728 258.264 417.925 257.211 413.88 255.104C409.92 252.997 406.844 249.964 404.653 246.003C402.547 241.959 401.493 237.197 401.493 231.72V190.009C401.493 184.447 402.547 179.686 404.653 175.725C406.844 171.765 409.92 168.731 413.88 166.625C417.925 164.518 422.728 163.465 428.29 163.465C433.851 163.465 438.612 164.518 442.573 166.625C446.618 168.731 449.693 171.765 451.8 175.725C453.991 179.686 455.086 184.405 455.086 189.882V231.72C455.086 237.197 453.991 241.959 451.8 246.003C449.693 249.964 446.618 252.997 442.573 255.104C438.612 257.211 433.851 258.264 428.29 258.264ZM428.29 248.026C433.262 248.026 437.053 246.635 439.666 243.855C442.362 240.989 443.711 236.945 443.711 231.72V190.009C443.711 184.784 442.362 180.781 439.666 178.001C437.053 175.136 433.262 173.703 428.29 173.703C423.402 173.703 419.61 175.136 416.914 178.001C414.217 180.781 412.869 184.784 412.869 190.009V231.72C412.869 236.945 414.217 240.989 416.914 243.855C419.61 246.635 423.402 248.026 428.29 248.026ZM477.789 257V164.729H506.355C511.832 164.729 516.635 165.866 520.765 168.141C524.894 170.332 528.096 173.408 530.371 177.369C532.646 181.329 533.784 185.964 533.784 191.273C533.784 197.508 532.14 202.859 528.854 207.325C525.652 211.791 521.27 214.867 515.709 216.552L535.048 257H521.649L503.953 217.816H489.165V257H477.789ZM489.165 207.578H506.355C511.074 207.578 514.866 206.103 517.731 203.154C520.596 200.12 522.029 196.16 522.029 191.273C522.029 186.301 520.596 182.34 517.731 179.391C514.866 176.442 511.074 174.967 506.355 174.967H489.165V207.578ZM579.87 258.264C574.308 258.264 569.505 257.211 565.46 255.104C561.5 252.997 558.424 249.964 556.233 246.003C554.127 241.959 553.073 237.197 553.073 231.72V190.009C553.073 184.447 554.127 179.686 556.233 175.725C558.424 171.765 561.5 168.731 565.46 166.625C569.505 164.518 574.308 163.465 579.87 163.465C585.431 163.465 590.192 164.518 594.153 166.625C598.198 168.731 601.273 171.765 603.38 175.725C605.571 179.686 606.666 184.405 606.666 189.882V231.72C606.666 237.197 605.571 241.959 603.38 246.003C601.273 249.964 598.198 252.997 594.153 255.104C590.192 257.211 585.431 258.264 579.87 258.264ZM579.87 248.026C584.842 248.026 588.634 246.635 591.246 243.855C593.942 240.989 595.291 236.945 595.291 231.72V190.009C595.291 184.784 593.942 180.781 591.246 178.001C588.634 175.136 584.842 173.703 579.87 173.703C574.982 173.703 571.191 175.136 568.494 178.001C565.797 180.781 564.449 184.784 564.449 190.009V231.72C564.449 236.945 565.797 240.989 568.494 243.855C571.191 246.635 574.982 248.026 579.87 248.026Z" fill="#E8B044"/>
<path d="M721.791 70L702.831 81.9377L721.791 105.111V70Z" fill="#D99A3F"/>
<path d="M742.155 87.5554L721.791 70V105.111L742.155 87.5554Z" fill="#F6CF7D"/>
<path d="M702.831 81.9377L693 106.515L721.791 105.111L702.831 81.9377Z" fill="#D69C37"/>
<path d="M693 106.515L708.449 127.582L721.791 105.111L693 106.515Z" fill="#EDBF5F"/>
<path d="M708.449 127.582L748.475 112.133L721.791 105.111L708.449 127.582Z" fill="#F6C762"/>
<path d="M748.475 112.133L742.155 87.5554L721.791 105.111L748.475 112.133Z" fill="#ECB147"/>
<circle cx="591.618" cy="39.6177" r="5.61773" fill="#F0BB5C"/>
<circle cx="56" cy="65" r="5" fill="#F8C35C"/>
<path d="M260.067 81L242.511 92.2355L239 112.6L255.151 99.2576L260.067 81Z" fill="#D99A3F"/>
<path fill-rule="evenodd" clip-rule="evenodd" d="M269.195 106.28L255.151 99.2576L239 112.6L252.342 119.622L269.195 106.28Z" fill="#F0BB5C"/>
<path d="M272.706 92.2355L260.067 81L255.151 99.2576L269.195 106.28L272.706 92.2355Z" fill="#EDBF5F"/>
<path d="M79.3421 131L66.7022 141.533L66 150.662L68.6684 153.471L79.3421 146.449V131Z" fill="#F8C35C"/>
<path d="M89.1732 156.28V139.427L79.3421 131V146.449L89.1732 156.28Z" fill="#EDBF5F"/>
<path d="M79.3421 164.706L89.1732 156.28L79.3421 146.449L68.6684 153.471L79.3421 164.706Z" fill="#D99A3F"/>
<circle cx="689.213" cy="261.213" r="4.2133" fill="#F8C35C"/>
<path d="M149.997 22C151.714 39.4892 154.164 47.232 168.034 46.9302C168.173 46.9258 168.313 46.922 168.455 46.9187C168.313 46.9233 168.173 46.9272 168.034 46.9302C152.941 47.4068 150.68 54.4416 149.997 70.453C149.561 52.9355 147.265 45.6992 132 46.9187C146.044 45.6422 150.372 40.6563 149.997 22Z" fill="#F7C969"/>
<circle cx="328.511" cy="36.5111" r="3.51108" fill="#F8C35C"/>
<path d="M522.88 52C525.063 74.2345 528.177 84.0781 545.81 83.6944C545.988 83.6888 546.166 83.6839 546.346 83.6798C546.166 83.6857 545.988 83.6906 545.81 83.6944C526.622 84.3004 523.749 93.2439 522.88 113.6C522.325 91.3291 519.406 82.1294 500 83.6798C517.854 82.057 523.357 75.7182 522.88 52Z" fill="#F6CF7D"/>
<circle cx="410.618" cy="105.618" r="5.61773" fill="#F7C969"/>
<circle cx="648.213" cy="144.213" r="4.2133" fill="#F6CF7D"/>
<circle cx="751.618" cy="181.618" r="5.61773" fill="#F0BB5C"/>
<circle cx="100.618" cy="240.618" r="5.61773" fill="#F6C762"/>
</svg>
