<svg width="567" height="147" viewBox="0 0 567 147" fill="none" xmlns="http://www.w3.org/2000/svg">
<path d="M134.629 145V52.7287H146.005V92.2916H159.656L180.132 52.7287H192.519L169.641 97.0948L193.783 145H180.764L159.277 102.277H146.005V145H134.629ZM236.71 146.264C228.115 146.264 221.542 143.905 216.991 139.186C212.441 134.382 210.166 127.894 210.166 119.72V52.7287H221.542V119.72C221.542 124.776 222.764 128.779 225.207 131.728C227.735 134.677 231.57 136.152 236.71 136.152C241.766 136.152 245.558 134.677 248.086 131.728C250.614 128.779 251.878 124.776 251.878 119.72V52.7287H263.254V119.72C263.254 127.978 260.978 134.467 256.428 139.186C251.962 143.905 245.389 146.264 236.71 146.264ZM286.209 145V52.7287H310.098C316.081 52.7287 321.221 53.8663 325.519 56.1415C329.901 58.4167 333.271 61.6188 335.631 65.7478C338.075 69.8768 339.296 74.7643 339.296 80.4101V117.192C339.296 122.838 338.075 127.768 335.631 131.981C333.271 136.11 329.901 139.312 325.519 141.587C321.221 143.862 316.081 145 310.098 145H286.209ZM297.585 134.888H310.098C315.66 134.888 319.999 133.329 323.117 130.211C326.319 127.093 327.92 122.754 327.92 117.192V80.4101C327.92 74.9328 326.319 70.6352 323.117 67.5174C319.999 64.3996 315.66 62.8406 310.098 62.8406H297.585V134.888ZM388.29 146.264C382.728 146.264 377.925 145.211 373.88 143.104C369.92 140.997 366.844 137.964 364.653 134.003C362.547 129.959 361.493 125.197 361.493 119.72V78.0085C361.493 72.447 362.547 67.6859 364.653 63.7254C366.844 59.7649 369.92 56.7313 373.88 54.6247C377.925 52.5181 382.728 51.4647 388.29 51.4647C393.851 51.4647 398.612 52.5181 402.573 54.6247C406.618 56.7313 409.693 59.7649 411.8 63.7254C413.991 67.6859 415.086 72.4048 415.086 77.8821V119.72C415.086 125.197 413.991 129.959 411.8 134.003C409.693 137.964 406.618 140.997 402.573 143.104C398.612 145.211 393.851 146.264 388.29 146.264ZM388.29 136.026C393.262 136.026 397.053 134.635 399.666 131.855C402.362 128.989 403.711 124.945 403.711 119.72V78.0085C403.711 72.784 402.362 68.7814 399.666 66.0006C397.053 63.1356 393.262 61.703 388.29 61.703C383.402 61.703 379.61 63.1356 376.914 66.0006C374.217 68.7814 372.869 72.784 372.869 78.0085V119.72C372.869 124.945 374.217 128.989 376.914 131.855C379.61 134.635 383.402 136.026 388.29 136.026ZM437.789 145V52.7287H466.355C471.832 52.7287 476.635 53.8663 480.765 56.1415C484.894 58.3324 488.096 61.4081 490.371 65.3686C492.646 69.3291 493.784 73.9638 493.784 79.2725C493.784 85.5082 492.14 90.8591 488.854 95.3252C485.652 99.7913 481.27 102.867 475.709 104.552L495.048 145H481.649L463.953 105.816H449.165V145H437.789ZM449.165 95.578H466.355C471.074 95.578 474.866 94.1033 477.731 91.154C480.596 88.1204 482.029 84.1599 482.029 79.2725C482.029 74.3008 480.596 70.3403 477.731 67.391C474.866 64.4417 471.074 62.967 466.355 62.967H449.165V95.578ZM539.87 146.264C534.308 146.264 529.505 145.211 525.46 143.104C521.5 140.997 518.424 137.964 516.233 134.003C514.127 129.959 513.073 125.197 513.073 119.72V78.0085C513.073 72.447 514.127 67.6859 516.233 63.7254C518.424 59.7649 521.5 56.7313 525.46 54.6247C529.505 52.5181 534.308 51.4647 539.87 51.4647C545.431 51.4647 550.192 52.5181 554.153 54.6247C558.198 56.7313 561.273 59.7649 563.38 63.7254C565.571 67.6859 566.666 72.4048 566.666 77.8821V119.72C566.666 125.197 565.571 129.959 563.38 134.003C561.273 137.964 558.198 140.997 554.153 143.104C550.192 145.211 545.431 146.264 539.87 146.264ZM539.87 136.026C544.842 136.026 548.634 134.635 551.246 131.855C553.942 128.989 555.291 124.945 555.291 119.72V78.0085C555.291 72.784 553.942 68.7814 551.246 66.0006C548.634 63.1356 544.842 61.703 539.87 61.703C534.982 61.703 531.191 63.1356 528.494 66.0006C525.797 68.7814 524.449 72.784 524.449 78.0085V119.72C524.449 124.945 525.797 128.989 528.494 131.855C531.191 134.635 534.982 136.026 539.87 136.026Z" fill="#E8B044"/>
<path d="M71.1993 65.5667L86.7741 80.429L106.285 57.5008L71.1993 65.5667Z" fill="#F2BD54"/>
<path fill-rule="evenodd" clip-rule="evenodd" d="M104.916 80.429H86.7741L97.9647 67.2786L111.002 75.6671C109.65 77.7423 107.616 79.4481 104.916 80.429Z" fill="#E9B247"/>
<path d="M106.285 57.5008L97.9647 67.2786L111.002 75.6671C114.737 69.9349 113.274 61.3837 106.285 57.5008Z" fill="#F0BC51"/>
<path d="M104.916 80.429H86.7741L97.2144 102.684L109.501 84.2267C108.479 82.5636 106.958 81.212 104.916 80.429Z" fill="#C58E3B"/>
<path d="M97.2144 102.684H98.9259C109.621 102.684 113.615 90.9271 109.501 84.2267L97.2144 102.684Z" fill="#D69C37"/>
<path d="M106.285 57.5008C105.263 56.9327 104.122 56.4645 102.862 56.1197H67.225L71.1993 65.5667L106.285 57.5008Z" fill="#F6CF7D"/>
<path d="M62.4705 56.1197C59.8908 55.4746 58.7446 50.8579 61.0653 42.9693L46.0399 67.7922L71.1993 65.5667L67.225 56.1197H62.4705Z" fill="#EFC36E"/>
<path d="M61.0653 42.9693L49.2918 34.2074L46.0399 67.7922L61.0653 42.9693Z" fill="#E3B657"/>
<path d="M64.5243 34.2074C66.6441 28.9996 67.4144 24.0828 67.225 19.6871L49.2918 34.2074L61.0653 42.9693C61.8241 40.3902 62.9534 37.4614 64.5243 34.2074Z" fill="#CD922B"/>
<path d="M67.225 19.6871C66.5428 3.85297 53.4079 -5.21999 46.0399 3.2218L67.225 19.6871Z" fill="#F8E889"/>
<path d="M67.225 19.6871L46.0399 3.2218L49.2918 34.2074L67.225 19.6871Z" fill="#F6C762"/>
<path d="M46.0399 3.2218C46.7245 12.9792 45.8688 17.9438 43.6438 27.7017C41.1123 31.5257 38.7716 34.9009 36.5713 38.0737C32.2875 44.2507 28.5359 49.6603 24.9451 56.1197L49.2918 34.2074L46.0399 3.2218Z" fill="#ECB147"/>
<path d="M46.0399 67.7922L49.2918 34.2074L24.9451 56.1197L24.9769 56.554C25.8558 60.0111 37.5479 81.4953 43.6438 92.4439L46.0399 67.7922Z" fill="#F7C969"/>
<path d="M71.1993 65.5667L46.0399 67.7922L43.6438 92.4439L71.1993 65.5667Z" fill="#F2B94E"/>
<path d="M71.1993 65.5667L51.5168 95.183L86.7741 80.429L71.1993 65.5667Z" fill="#F8C35C"/>
<path d="M51.5168 95.183L71.1993 65.5667L43.6438 92.4439L51.5168 95.183Z" fill="#DEA235"/>
<path d="M51.5168 95.183L76.505 99.8052L86.7741 80.429L51.5168 95.183Z" fill="#E8B044"/>
<path d="M86.7741 80.429L76.505 99.8052L97.2144 102.684L86.7741 80.429Z" fill="#D99A3F"/>
<path d="M98.9259 102.684H97.2144L71.8411 110.952L97.2144 122.297C103.869 118.191 106.637 109.314 98.9259 102.684Z" fill="#F0BB5C"/>
<path d="M76.505 99.8052L46.4678 119.22L71.8411 110.952L97.2144 102.684L76.505 99.8052Z" fill="#F5A915"/>
<path d="M71.8411 110.952L46.4678 119.22L78.5588 121.165L97.2144 122.297L71.8411 110.952Z" fill="#DBA04B"/>
<path fill-rule="evenodd" clip-rule="evenodd" d="M90.4224 139.693C87.611 143.486 83.3511 144.486 78.5588 144.486V121.165L90.4224 139.693Z" fill="#C59B03"/>
<path d="M91.2241 124.425C93.449 124.425 95.4499 123.385 97.2144 122.297L78.5588 121.165L90.4224 139.693C94.1163 134.71 95.2086 128.022 91.2241 124.425Z" fill="#D9AE15"/>
<path d="M49.2918 145L78.5588 144.486V121.165L49.2918 145Z" fill="#B6821D"/>
<path d="M27.0052 84.2267L29.894 123.639L29.9558 124.416L43.6438 92.4439C37.5479 81.4953 25.8558 60.0111 24.9769 56.554L27.0052 84.2267Z" fill="#D99A3F"/>
<path d="M51.5168 95.183L43.6438 92.4439L46.4678 119.22L51.5168 95.183Z" fill="#E4B258"/>
<path d="M49.2918 145L46.4678 119.22L43.6438 92.4439L29.9558 124.416L29.9571 124.432L49.2918 145Z" fill="#E9B247"/>
<path d="M76.505 99.8052L51.5168 95.183L46.4678 119.22L76.505 99.8052Z" fill="#F0BC51"/>
<path d="M46.4678 119.22L49.2918 145L78.5588 121.165L46.4678 119.22Z" fill="#C5A73B"/>
<path d="M22.9344 59.8863C19.7545 64.8524 17.9368 67.2401 14.5479 69.9866L9.07106 72.5545H0V76.6942L27.0052 84.2267L24.9769 56.554C24.9208 56.3332 24.9087 56.186 24.9451 56.1197C24.27 57.3341 23.6006 58.5856 22.9344 59.8863Z" fill="#DEA235"/>
<path d="M27.0052 84.2267L0 76.6942L11.1249 110.952L27.0052 84.2267Z" fill="#E3B657"/>
<path d="M27.0052 84.2267L11.1249 110.952L29.9516 143.11L31.492 143.7L29.9571 124.432L29.9516 124.425L29.894 123.639L27.0052 84.2267Z" fill="#EDBF5F"/>
<path d="M37.3112 145H49.2918L29.9571 124.432L31.492 143.7L37.3112 145Z" fill="#E4A01B"/>
<path fill-rule="evenodd" clip-rule="evenodd" d="M29.894 123.639L29.9516 124.425L29.9571 124.432L29.9558 124.416L29.894 123.639ZM11.1249 110.952L0 76.6942V135.896H5.56244L11.1249 110.952ZM24.9451 56.1197L24.9769 56.554C24.9208 56.3332 24.9087 56.186 24.9451 56.1197Z" fill="#F6C762"/>
<path d="M11.1249 135.896L29.9516 143.11L11.1249 110.952L5.56244 135.896H11.1249Z" fill="#F6CF7D"/>
</svg>
