<svg width="807" height="305" viewBox="0 0 807 305" fill="none" xmlns="http://www.w3.org/2000/svg">
<path d="M721.791 70L702.831 81.9377L721.791 105.111V70Z" fill="#D99A3F"/>
<path d="M742.155 87.5554L721.791 70V105.111L742.155 87.5554Z" fill="#F6CF7D"/>
<path d="M702.831 81.9377L693 106.515L721.791 105.111L702.831 81.9377Z" fill="#D69C37"/>
<path d="M693 106.515L708.449 127.582L721.791 105.111L693 106.515Z" fill="#EDBF5F"/>
<path d="M708.449 127.582L748.475 112.133L721.791 105.111L708.449 127.582Z" fill="#F6C762"/>
<path d="M748.475 112.133L742.155 87.5554L721.791 105.111L748.475 112.133Z" fill="#ECB147"/>
<circle cx="591.618" cy="39.6177" r="5.61773" fill="#F0BB5C"/>
<circle cx="56" cy="65" r="5" fill="#F8C35C"/>
<path d="M260.067 81L242.511 92.2355L239 112.6L255.151 99.2576L260.067 81Z" fill="#D99A3F"/>
<path fill-rule="evenodd" clip-rule="evenodd" d="M269.195 106.28L255.151 99.2576L239 112.6L252.342 119.622L269.195 106.28Z" fill="#F0BB5C"/>
<path d="M272.706 92.2355L260.067 81L255.151 99.2576L269.195 106.28L272.706 92.2355Z" fill="#EDBF5F"/>
<path d="M79.3421 131L66.7022 141.533L66 150.662L68.6684 153.471L79.3421 146.449V131Z" fill="#F8C35C"/>
<path d="M89.1732 156.28V139.427L79.3421 131V146.449L89.1732 156.28Z" fill="#EDBF5F"/>
<path d="M79.3421 164.706L89.1732 156.28L79.3421 146.449L68.6684 153.471L79.3421 164.706Z" fill="#D99A3F"/>
<circle cx="689.213" cy="261.213" r="4.2133" fill="#F8C35C"/>
<path d="M149.997 22C151.714 39.4892 154.164 47.232 168.034 46.9302C168.173 46.9258 168.313 46.922 168.455 46.9187C168.313 46.9233 168.173 46.9272 168.034 46.9302C152.941 47.4068 150.68 54.4416 149.997 70.453C149.561 52.9355 147.265 45.6992 132 46.9187C146.044 45.6422 150.372 40.6563 149.997 22Z" fill="#F7C969"/>
<circle cx="328.511" cy="36.5111" r="3.51108" fill="#F8C35C"/>
<path d="M522.88 52C525.063 74.2345 528.177 84.0781 545.81 83.6944C545.988 83.6888 546.166 83.6839 546.346 83.6798C546.166 83.6857 545.988 83.6906 545.81 83.6944C526.622 84.3004 523.749 93.2439 522.88 113.6C522.325 91.3291 519.406 82.1294 500 83.6798C517.854 82.057 523.357 75.7182 522.88 52Z" fill="#F6CF7D"/>
<circle cx="410.618" cy="105.618" r="5.61773" fill="#F7C969"/>
<circle cx="648.213" cy="144.213" r="4.2133" fill="#F6CF7D"/>
<circle cx="751.618" cy="181.618" r="5.61773" fill="#F0BB5C"/>
<circle cx="100.618" cy="240.618" r="5.61773" fill="#F6C762"/>
</svg>
