<svg width="807" height="305" viewBox="0 0 807 305" fill="none" xmlns="http://www.w3.org/2000/svg">
<path d="M730.791 42L711.831 53.9377L730.791 77.1108V42Z" fill="#D99A3F"/>
<path d="M751.155 59.5554L730.791 42V77.1108L751.155 59.5554Z" fill="#F6CF7D"/>
<path d="M711.831 53.9377L702 78.5153L730.791 77.1108L711.831 53.9377Z" fill="#D69C37"/>
<path d="M702 78.5153L717.449 99.5818L730.791 77.1108L702 78.5153Z" fill="#EDBF5F"/>
<path d="M717.449 99.5818L757.475 84.133L730.791 77.1108L717.449 99.5818Z" fill="#F6C762"/>
<path d="M757.475 84.133L751.155 59.5554L730.791 77.1108L757.475 84.133Z" fill="#ECB147"/>
<circle cx="598.618" cy="21.6177" r="5.61773" fill="#F0BB5C"/>
<circle cx="39" cy="57" r="5" fill="#F8C35C"/>
<path d="M261.067 70L243.511 81.2355L240 101.6L256.151 88.2576L261.067 70Z" fill="#D99A3F"/>
<path fill-rule="evenodd" clip-rule="evenodd" d="M270.195 95.2798L256.151 88.2576L240 101.6L253.342 108.622L270.195 95.2798Z" fill="#F0BB5C"/>
<path d="M273.706 81.2355L261.067 70L256.151 88.2576L270.195 95.2798L273.706 81.2355Z" fill="#EDBF5F"/>
<path d="M67.3421 128L54.7022 138.533L54 147.662L56.6684 150.471L67.3421 143.449V128Z" fill="#F8C35C"/>
<path d="M77.1732 153.28V136.427L67.3421 128V143.449L77.1732 153.28Z" fill="#EDBF5F"/>
<path d="M67.3421 161.706L77.1732 153.28L67.3421 143.449L56.6684 150.471L67.3421 161.706Z" fill="#D99A3F"/>
<circle cx="720.213" cy="197.213" r="4.2133" fill="#F8C35C"/>
<path d="M149.997 22C151.714 39.4892 154.164 47.232 168.034 46.9302C168.173 46.9258 168.313 46.922 168.455 46.9187C168.313 46.9233 168.173 46.9272 168.034 46.9302C152.941 47.4068 150.68 54.4416 149.997 70.453C149.561 52.9355 147.265 45.6992 132 46.9187C146.044 45.6422 150.372 40.6563 149.997 22Z" fill="#F7C969"/>
<circle cx="328.511" cy="36.5111" r="3.51108" fill="#F8C35C"/>
<path d="M526.88 42C529.063 64.2345 532.177 74.0781 549.81 73.6944C549.988 73.6888 550.166 73.6839 550.346 73.6798C550.166 73.6857 549.988 73.6906 549.81 73.6944C530.622 74.3004 527.749 83.2439 526.88 103.6C526.325 81.3291 523.406 72.1294 504 73.6798C521.854 72.057 527.357 65.7182 526.88 42Z" fill="#F6CF7D"/>
<circle cx="409.618" cy="96.6177" r="5.61773" fill="#F7C969"/>
<circle cx="649.213" cy="102.213" r="4.2133" fill="#F6CF7D"/>
<circle cx="751.618" cy="181.618" r="5.61773" fill="#F0BB5C"/>
<circle cx="82.6177" cy="225.618" r="5.61773" fill="#F6C762"/>
</svg>
